<svg xmlns="http://www.w3.org/2000/svg" width="63.998" height="63.998" viewBox="0 0 63.998 63.998">
  <g id="s-skytrax-2023-log" transform="translate(-4 -4)">
    <path id="SVGID" d="M6.084,36A29.949,29.949,0,0,1,36,6.084h0A29.949,29.949,0,0,1,65.914,36h0A29.949,29.949,0,0,1,36,65.914h0A29.949,29.949,0,0,1,6.084,36M4,36A32,32,0,0,0,36,68h0A32,32,0,0,0,68,36h0A32,32,0,0,0,36,4h0A32,32,0,0,0,4,36" transform="translate(0 0)" fill="#4a525d"/>
    <path id="Path_10182" data-name="Path 10182" d="M197.94,50.1a8.1,8.1,0,0,1,2.269-.407,1.189,1.189,0,0,1,.782.475,4.835,4.835,0,0,1,.737,1.9,2.669,2.669,0,0,1-.066,1.924,2.336,2.336,0,0,1-1.53.788l-.977.235c-.007-.028-.026-.085-.033-.113-.382-1.6-1.181-4.8-1.181-4.8m.929.4c.274,1.2.6,2.393.885,3.59l.026.14c.3-.073.592-.146.881-.24a.889.889,0,0,0,.4-.912,6.531,6.531,0,0,0-.364-1.734,1.86,1.86,0,0,0-.529-.9c-.4-.271-.88-.016-1.3.059" transform="translate(-170.071 -40.061)" fill="#4a525d"/>
    <path id="Path_10183" data-name="Path 10183" d="M159.01,67.95c.241-.107.473-.234.709-.35.583,1.229,1.188,2.448,1.782,3.672.042.086.085.171.128.258.585-.278,1.168-.561,1.75-.843.114.225.289.628.289.628s-1.593.8-2.416,1.179c-.729-1.517-1.511-3.028-2.242-4.545" transform="translate(-135.933 -55.773)" fill="#4a525d"/>
    <path id="Path_10184" data-name="Path 10184" d="M122.275,85.084a1.188,1.188,0,0,1,.875-.235,1.461,1.461,0,0,1,.764.463,1.4,1.4,0,0,1,.324,1.353c-.049.078-.106.151-.16.225a.921.921,0,0,1,.736-.047,2.4,2.4,0,0,1,.6.546c.159.2.315.411.482.61a.639.639,0,0,0,.406.256l.092.014c-.246.225-.517.418-.763.608-.226-.25-.481-.553-.72-.834-.206-.247-.409-.553-.745-.626-.42.03-.752.426-1.084.64.438.58.878,1.158,1.333,1.724-.2.177-.4.294-.6.468-.524-.6-.935-1.277-1.429-1.9-.538-.716-1.1-1.417-1.623-2.143.512-.363,1.007-.753,1.515-1.125m-.075.8c-.164.112-.353.27-.468.361,0,0,.67.891,1.023,1.3a4.7,4.7,0,0,0,.764-.666.668.668,0,0,0,.036-.658,1.647,1.647,0,0,0-.529-.556.957.957,0,0,0-.826.219" transform="translate(-102.39 -70.885)" fill="#4a525d"/>
    <path id="Path_10185" data-name="Path 10185" d="M91.426,118.273a1.447,1.447,0,0,1,1.53-.815,5.068,5.068,0,0,1,2.305,1.51,2.307,2.307,0,0,1,.747,1.415,1.762,1.762,0,0,1-.8,1.356,1.394,1.394,0,0,1-1.087.161,4.139,4.139,0,0,1-1.41-.794,4.3,4.3,0,0,1-1.423-1.689,1.29,1.29,0,0,1,.14-1.146m.537.293a.751.751,0,0,0,.128.814c0,.006.178.229.236.287a6.778,6.778,0,0,0,1.921,1.472.737.737,0,0,0,.869-.116.721.721,0,0,0,.085-.882,4.394,4.394,0,0,0-.719-.809,4.819,4.819,0,0,0-1.724-1.174.75.75,0,0,0-.8.409" transform="translate(-76.478 -99.468)" fill="#4a525d"/>
    <path id="Path_10186" data-name="Path 10186" d="M386.843,99.94c.182.174.411.386.6.554,0,0-2.326,2.468-3.451,3.685-.188-.177-.622-.561-.622-.561.2-.21,2.511-2.662,3.473-3.677" transform="translate(-332.68 -84.132)" fill="#4a525d"/>
    <path id="Path_10187" data-name="Path 10187" d="M359.678,76.25c.209.161.431.3.646.458-.8,1.1-1.588,2.21-2.383,3.314-.055.078-.11.156-.166.235q.785.572,1.575,1.138c-.143.208-.415.553-.415.553s-1.478-1.055-2.205-1.6c.987-1.362,1.962-2.736,2.948-4.1" transform="translate(-309.319 -63.358)" fill="#4a525d"/>
    <path id="Path_10188" data-name="Path 10188" d="M398.89,122.61c1.335-1.02,2.681-2.026,4.021-3.04.066.089.437.564.572.747-.6,1.06-2.034,3.366-2.1,3.488,1-.751,2-1.505,3-2.249,0,0,.294.353.46.572-1.33,1.029-2.685,2.028-4.022,3.047-.171-.226-.639-.8-.639-.8s1.622-2.458,2.234-3.476c-.134.095-2.175,1.66-3.082,2.321-.148-.2-.3-.4-.444-.607" transform="translate(-346.29 -101.347)" fill="#4a525d"/>
    <path id="Path_10189" data-name="Path 10189" d="M422.39,162.8q2.285-1.063,4.57-2.129c.187.383,1.135,2.489,1.135,2.489l-.605.265c-.244-.59-.53-1.159-.783-1.744-.432.172-.839.4-1.269.574.22.564.5,1.1.741,1.659-.206.1-.41.191-.614.289-.25-.546-.514-1.1-.758-1.65-.492.222-.957.448-1.466.674.263.61.565,1.2.843,1.808-.2.1-.406.2-.613.292-.075-.164-.15-.327-.226-.49-.321-.679-.642-1.355-.954-2.036" transform="translate(-366.898 -137.388)" fill="#4a525d"/>
    <path id="Path_10190" data-name="Path 10190" d="M58.065,151.32c1.364,1,2.726,2.009,4.093,3l.057.039c-.113.283-.272.546-.367.837-1.049-.276-3.553-.938-3.727-.986,1.02.725,2.055,1.43,3.084,2.144l.06.043c-.118.282-.25.558-.362.842-1.669-.394-3.329-.821-4.994-1.227.011-.028.032-.082.043-.11.086-.218.188-.428.282-.644,1.295.35,2.585.724,3.88,1.066-.146-.108-.558-.383-.6-.427-.9-.618-1.81-1.223-2.7-1.857,0,0,.244-.519.358-.761,1.3.359,2.6.7,3.9,1.06a4.6,4.6,0,0,0-.39-.262c-.959-.7-1.97-1.35-2.945-2.027,0,0,.229-.5.334-.73" transform="translate(-45.521 -129.189)" fill="#4a525d"/>
    <path id="Path_10191" data-name="Path 10191" d="M180.839,318.9l-9.018-.017a4.209,4.209,0,0,0-7.266,0l-9.093.017s-.6,0-.571.514c0,0,.012.4.543.425h8.71c-.038.133-.07.27-.1.407l-7.418.014s-.6,0-.571.514c0,0,.012.4.543.425h7.379c.006.127.017.252.034.375l-6.23.012s-.6,0-.571.514c0,0,.012.4.543.425h6.5a4.21,4.21,0,0,0,7.852,0h6.427c.53-.022.543-.425.543-.425.031-.513-.571-.514-.571-.514l-6.156-.012c.016-.123.028-.249.034-.375h7.306c.53-.022.543-.425.543-.425.031-.512-.571-.514-.571-.514l-7.342-.014c-.026-.138-.058-.274-.1-.407h8.635c.53-.022.543-.425.543-.425.036-.512-.566-.514-.566-.514" transform="translate(-132.32 -274.303)" fill="#4a525d"/>
    <path id="Path_10192" data-name="Path 10192" d="M55.584,240.573s.46-.03.581-.271c.054-.128-.041-.458-.58-.458l-3.036-.033s-1.409.01-1.868-.991.4-2.139,1.92-2.187,4.97-.007,4.97-.007L56.514,238l-3.751,0s-.306-.021-.35.175a.191.191,0,0,0,.191.262c.087,0,2.838,0,2.838,0a2.5,2.5,0,0,1,1.933.786c.633.848.522,2.25-1.221,2.676a19.535,19.535,0,0,1-2.671.069H50.55l1.069-1.364Z" transform="translate(-40.821 -203.982)" fill="#4a525d"/>
    <path id="Path_10193" data-name="Path 10193" d="M111.1,236.756h1.644V238.6l2.523-1.851h2.468l-3.716,2.694,3.75,2.639h-2.489l-2.522-1.788v1.8H111.09v-5.334Z" transform="translate(-93.91 -204.105)" fill="#4a525d"/>
    <path id="Path_10194" data-name="Path 10194" d="M166.61,236.785h2.108l2,2.159,1.861-2.164H174.7l-3.154,3.583v1.765l-1.682,0v-1.794Z" transform="translate(-142.597 -204.131)" fill="#4a525d"/>
    <path id="Path_10195" data-name="Path 10195" d="M232.035,238.065l1.028-1.378h8.774c.171,0,2.983-.009,2.577,2.393a1.512,1.512,0,0,1-.489.816,4.085,4.085,0,0,1-.756.539l1.82,1.6h-2.335l-1.609-1.332h-2.3v1.332h-1.655l-.012-2.763s4.255.01,4.933,0a.685.685,0,0,0,.741-.619c.006-.226-.282-.551-.779-.551h-6.063v3.951h-1.721V238.07H232.03Z" transform="translate(-199.966 -204.049)" fill="#4a525d"/>
    <path id="Path_10196" data-name="Path 10196" d="M339.28,242.04l3.082-4.324s.668-1.076,1.367-1.028a1.814,1.814,0,0,1,1.244.789l3.143,4.572h-6.231l.981-1.392h2.221l-1.364-1.913-2.406,3.3h-1.872Z" transform="translate(-294.016 -204.05)" fill="#4a525d"/>
    <path id="Path_10197" data-name="Path 10197" d="M412.31,236.7l2.16-.015,1.929,1.991,1.883-1.98H420.4l-2.612,2.714,2.482,2.623h-2.081l-1.794-1.9-1.836,1.9h-2.076l2.485-2.623Z" transform="translate(-358.058 -204.052)" fill="#4a525d"/>
    <path id="Path_10198" data-name="Path 10198" d="M264.311,44.88c.363.017.7.046,1.012.06.154.588.228,1.194.358,1.788.207,1.11.418,2.22.628,3.33-.29-.009-.582-.016-.853-.02-.078-.41-.123-.794-.2-1.229l-.007-.054c-.529-.028-.982-.054-1.488-.074-.114.4-.268.793-.383,1.189,0,0-.574-.031-.861-.058-.006-.016,1.206-3.306,1.791-4.933m.409.7c0,.041-.741,2.416-.757,2.449.492.023.737.033,1.172.055-.076-.581-.34-2.122-.415-2.5" transform="translate(-226.703 -35.849)" fill="#4a525d"/>
    <path id="Path_10199" data-name="Path 10199" d="M304.31,49.66c.244.062.549.134.794.188,0,0-.814,3.292-1.2,4.9-.251-.062-.817-.183-.817-.183.074-.283.88-3.552,1.22-4.909" transform="translate(-262.28 -40.041)" fill="#4a525d"/>
    <path id="Path_10200" data-name="Path 10200" d="M325.919,56.119a1.18,1.18,0,0,1,.649.633,1.458,1.458,0,0,1-.009.894,1.4,1.4,0,0,1-1,.97c-.092,0-.185-.014-.276-.023a.919.919,0,0,1,.416.609,2.412,2.412,0,0,1-.165.793c-.095.24-.129.427-.214.672a4.041,4.041,0,0,0-.1.612c-.119-.036-.761-.342-.761-.342a2.7,2.7,0,0,1,.26-1.056,1.452,1.452,0,0,0,.155-.944c-.239-.346-.689-.414-1.044-.591-.274.673-.564,1.341-.818,2.023-.256-.085-.5-.2-.754-.29.246-.754.62-1.456.9-2.2.341-.828.657-1.668,1.013-2.49.578.256,1.167.481,1.745.729m-.725.343c-.18-.084-.357-.151-.494-.2,0,0-.452,1.023-.624,1.536a4.368,4.368,0,0,0,.935.31.666.666,0,0,0,.585-.305,1.661,1.661,0,0,0,.208-.738.951.951,0,0,0-.61-.6" transform="translate(-279.091 -45.065)" fill="#4a525d"/>
    <path id="Path_10201" data-name="Path 10201" d="M159.51,164.11l1.108,3.563h1l.96-2.86.906,2.86h1.044l1.162-3.563H164.9l-.86,2.845-.955-2.845h-.965l-.95,2.845-.836-2.845Z" transform="translate(-136.371 -140.405)" fill="#4a525d"/>
    <rect id="Rectangle_10121" data-name="Rectangle 10121" width="0.816" height="3.562" transform="translate(29.867 23.705)" fill="#4a525d"/>
    <path id="Path_10202" data-name="Path 10202" d="M229,167.673h.747v-2.7l1.7,2.7h1.142V164.11h-.752v2.741l-1.732-2.741H229Z" transform="translate(-197.309 -140.405)" fill="#4a525d"/>
    <path id="Path_10203" data-name="Path 10203" d="M266.22,167.673h.747v-2.7l1.7,2.7h1.143V164.11h-.752v2.741l-1.732-2.741H266.22Z" transform="translate(-229.948 -140.405)" fill="#4a525d"/>
    <path id="Path_10204" data-name="Path 10204" d="M303.52,167.673h2.908v-.555H304.3v-1.044h1.889v-.544H304.3v-.88h2.058v-.54H303.52Z" transform="translate(-262.657 -140.405)" fill="#4a525d"/>
    <path id="Path_10205" data-name="Path 10205" d="M335.189,167.673h.855a1.33,1.33,0,0,1-.174-.534l-.094-.475c-.1-.5-.178-.7-.678-.732.569-.114.841-.386.841-.871a.863.863,0,0,0-.375-.757,2.112,2.112,0,0,0-1.133-.193h-1.7v3.562h.791v-1.514h.608c.539,0,.722.059.8.46l.114.578A1.83,1.83,0,0,0,335.189,167.673Zm-1.668-2.064v-.945h.593c.693,0,1.039.03,1.039.475s-.347.47-1.029.47Z" transform="translate(-288.272 -140.405)" fill="#4a525d"/>
    <path id="Path_10206" data-name="Path 10206" d="M60.457,340.463l.311.639,3.766-3.51-.342-.7-5.1.769.309.633,1.226-.217.764,1.567Zm.762-2.495,2.454-.4-1.836,1.664-.618-1.266Z" transform="translate(-48.31 -291.92)" fill="#4a525d"/>
    <path id="Path_10207" data-name="Path 10207" d="M87.69,363.991l.506.6,2.837-1.407a8.75,8.75,0,0,0,1.184-.663,11.2,11.2,0,0,0-.88,1.015l-1.9,2.538.5.592,4.58-2.2-.409-.487-3.393,1.732c-.244.124-.478.25-.694.386a6.135,6.135,0,0,0,.544-.618l2.273-3.014-.439-.524-3.436,1.723c-.086.046-.31.162-.673.368a7.409,7.409,0,0,0,.517-.586l2.309-3.034-.422-.5-3,4.081Z" transform="translate(-73.39 -312.107)" fill="#4a525d"/>
    <path id="Path_10208" data-name="Path 10208" d="M131,413.934l.582.409,1.591-4.9L132.54,409l-4.09,3.147.577.4.966-.784,1.428,1Zm-.544-2.55,1.953-1.537-.8,2.346Z" transform="translate(-109.134 -355.156)" fill="#4a525d"/>
    <path id="Path_10209" data-name="Path 10209" d="M179.031,426.013l-1.206-.463-1.765,4.6.607.233.806-2.1.727.279c.409.158.46.4.289.887a6.211,6.211,0,0,0-.438,1.466l.625.24a3.593,3.593,0,0,1,.239-.985c.052-.134.117-.284.185-.463.238-.619.188-.967-.313-1.226a1.1,1.1,0,0,0,1.223-.82C180.31,426.878,179.995,426.383,179.031,426.013Zm-1.367,1.767.583-1.52.683.262a.669.669,0,0,1,.446.977c-.225.587-.62.7-1.265.453Z" transform="translate(-150.884 -369.669)" fill="#4a525d"/>
    <path id="Path_10210" data-name="Path 10210" d="M224.809,442.682l.533-3.792.684.1c.522.074.8.229.892.678a5.792,5.792,0,0,1-.092,1.348,3.66,3.66,0,0,1-.418,1.549c-.185.23-.468.279-.914.217l-.684-.1Zm-.729.464,1.172.165c.731.1,1.217.137,1.643-.342a3.466,3.466,0,0,0,.548-1.781c.15-1.07.233-1.749-.144-2.217a1.914,1.914,0,0,0-1.361-.537l-1.172-.165Z" transform="translate(-192.994 -380.823)" fill="#4a525d"/>
    <path id="Path_10211" data-name="Path 10211" d="M271.59,443.928c0,.054,0,.1.006.15.079.9.6,1.307,1.548,1.223s1.455-.629,1.38-1.487c-.05-.572-.4-.823-1.063-1.177-.828-.442-1.318-.626-1.365-1.164a.7.7,0,0,1,.7-.735c.476-.042.746.209.791.733,0,.033.006.068.009.1l.674-.059-.011-.123a1.2,1.2,0,0,0-1.482-1.168,1.3,1.3,0,0,0-1.34,1.38c.062.7.459.941,1.222,1.341.726.375,1.167.55,1.209,1.02a.764.764,0,0,1-.758.821c-.511.044-.746-.217-.8-.836,0-.027,0-.062-.007-.089Z" transform="translate(-234.522 -382.529)" fill="#4a525d"/>
    <path id="Path_10212" data-name="Path 10212" d="M345.6,425.033l2.258-1.2-.266-.5-1.618.86.257-1.919a3.019,3.019,0,0,0-.166-1.77,1.055,1.055,0,0,0-1.579-.362,1.111,1.111,0,0,0-.6,1.631c.02.036.048.075.066.112l.586-.311c-.23-.49-.191-.782.171-.975a.567.567,0,0,1,.82.23,2.139,2.139,0,0,1,.1,1.132l-.31,2.534.286.538Z" transform="translate(-297.906 -364.752)" fill="#4a525d"/>
    <path id="Path_10213" data-name="Path 10213" d="M379.659,400.174c-.839-1.036-1.2-1.516-.655-1.961s.938.006,1.781,1.047,1.2,1.521.655,1.961S380.5,401.21,379.659,400.174Zm-.985-2.379a1.24,1.24,0,0,0-.513,1.04c.027.489.427.983,1.025,1.722s1,1.233,1.471,1.36a1.237,1.237,0,0,0,1.12-.29,1.21,1.21,0,0,0,.512-1.03,3.314,3.314,0,0,0-.948-1.626l-.078-.1-.078-.1c-.551-.681-.939-1.148-1.4-1.27A1.213,1.213,0,0,0,378.675,397.8Z" transform="translate(-328.111 -345.044)" fill="#4a525d"/>
    <path id="Path_10214" data-name="Path 10214" d="M408.732,372.3l1.554-2.032-.45-.345-1.114,1.456-.564-1.852a3.021,3.021,0,0,0-.887-1.54,1.055,1.055,0,0,0-1.586.329,1.111,1.111,0,0,0,.129,1.734c.032.025.075.049.107.074l.4-.527c-.412-.35-.5-.631-.25-.958a.567.567,0,0,1,.841-.132,2.147,2.147,0,0,1,.561.988l.773,2.433Z" transform="translate(-351.94 -318.982)" fill="#4a525d"/>
    <path id="Path_10215" data-name="Path 10215" d="M36.888,5.549A31.871,31.871,0,1,0,68.649,37.528,31.906,31.906,0,0,0,36.888,5.549Zm-.21,61.9A30.031,30.031,0,1,1,66.809,37.522,30.031,30.031,0,0,1,36.677,67.45Z" transform="translate(-0.797 -1.358)" fill="#4a525d"/>
    <path id="Path_10216" data-name="Path 10216" d="M427.652,338.333l-.078-.057a.977.977,0,0,1-.284-1.532.933.933,0,0,1,1.485-.169l.126.092c.441.324.564.614.47.934l.006,0c.322-.235.682-.241,1.214.15l.272.2c.6.442.857.966.332,1.679a.99.99,0,0,1-1.583.2l-.1-.075.341-.464.119.089c.3.217.612.287.846-.03.249-.338.1-.59-.3-.885l-.294-.215c-.458-.336-.7-.336-1.012.095l-.1.143-.4-.294.1-.139c.256-.348.229-.538-.2-.853l-.2-.145c-.3-.223-.546-.294-.758-.006s-.073.53.231.754l.1.073Z" transform="translate(-370.968 -291.39)" fill="#4a525d"/>
  </g>
</svg>
