<svg xmlns="http://www.w3.org/2000/svg" width="182.619" height="43.897" viewBox="0 0 182.619 43.897">
  <g id="Theqa" transform="translate(0 0.707)">
    <rect id="Rectangle_14121" data-name="Rectangle 14121" width="181.819" height="42.483" fill="none"/>
    <g id="Group_28503" data-name="Group 28503">
      <path id="Union_220" data-name="Union 220" d="M706.677-5171.08l1.782-1.778,1.778,1.78,1.782-1.778,1.78,1.781-3.563,3.559Zm9.392-.513.652-2.431,2.432.653.654-2.432,2.431.652-1.306,4.863Zm-17.827-3.564,2.432-.65.65,2.433,2.433-.65.648,2.432-4.864,1.3Zm73.562.446a5.8,5.8,0,0,1-1.815-1.23,5.86,5.86,0,0,1-1.23-1.832,5.535,5.535,0,0,1-.442-2.225,5.584,5.584,0,0,1,.456-2.226,5.911,5.911,0,0,1,1.233-1.832,5.845,5.845,0,0,1,1.831-1.231,5.565,5.565,0,0,1,2.225-.457,5.559,5.559,0,0,1,2.225.442,5.856,5.856,0,0,1,1.832,1.232,5.729,5.729,0,0,1,1.23,1.815,5.536,5.536,0,0,1,.458,2.225,6.062,6.062,0,0,1-.173,1.42,5.7,5.7,0,0,1-.473,1.279l1.593,1.279-1.437,1.768-1.594-1.294-.061.047a5.621,5.621,0,0,1-1.674.947,5.707,5.707,0,0,1-1.957.332A5.576,5.576,0,0,1,771.8-5174.711Zm.948-8.271a3.1,3.1,0,0,0-1.011.71,3.272,3.272,0,0,0-.663,1.042,3.407,3.407,0,0,0-.237,1.279,3.407,3.407,0,0,0,.237,1.279,3.25,3.25,0,0,0,.663,1.041,3.063,3.063,0,0,0,1.011.71,3.13,3.13,0,0,0,1.279.253l-.016.031a3.114,3.114,0,0,0,1.657-.458l-1.7-1.389,1.436-1.752,1.642,1.326a4.771,4.771,0,0,0,.126-.506,2.808,2.808,0,0,0,.048-.521,3.408,3.408,0,0,0-.238-1.279,3.227,3.227,0,0,0-.663-1.041,3.08,3.08,0,0,0-1.011-.711,3.147,3.147,0,0,0-1.277-.267A3.144,3.144,0,0,0,772.752-5182.982Zm-12.126,8.6v-11.207h6.946v2.494h-4.419v1.895h3.471v2.429h-3.471v1.9h4.419v2.495Zm-4.8,0v-4.39h-4.484v4.39h-2.525v-11.207h2.525v4.388h4.484v-4.388h2.525v11.207Zm-13.75,0v-8.713h-2.684v-2.494H747.3v2.494h-2.7v8.713Zm47.087,0-.805-1.736h-4.136l-.805,1.736h-2.65l5.523-11.333,5.526,11.333Zm-3.93-3.788h2.116l-1.059-2.337Zm-62.039-1.021,2.433-.65-.65-2.433,2.432-.65,1.3,4.863-4.864,1.3Zm-31.424,1.121,1.306-4.863,2.431.652-.652,2.432,2.432.654-.654,2.431Zm34.373-8.906,1.781-1.781-1.78-1.781,1.781-1.778,3.559,3.562-3.563,3.56ZM689-5188.765l3.563-3.559,1.778,1.782-1.781,1.78,1.78,1.781-1.781,1.778Zm77.921.653H745.106a5.542,5.542,0,0,1-2.225-.459,5.771,5.771,0,0,1-1.815-1.23,5.863,5.863,0,0,1-1.232-1.831,5.552,5.552,0,0,1-.442-2.226,5.559,5.559,0,0,1,.458-2.225,5.819,5.819,0,0,1,1.232-1.832,5.832,5.832,0,0,1,1.831-1.23,5.572,5.572,0,0,1,2.227-.458,5.522,5.522,0,0,1,2.223.442,5.814,5.814,0,0,1,1.833,1.23,5.777,5.777,0,0,1,1.23,1.815,5.544,5.544,0,0,1,.458,2.225,5.538,5.538,0,0,1-.442,2.227,5.731,5.731,0,0,1-.571,1.025h3a5.928,5.928,0,0,1-.543-.994,5.53,5.53,0,0,1-.443-2.226,5.536,5.536,0,0,1,.459-2.225,5.836,5.836,0,0,1,1.23-1.832,5.838,5.838,0,0,1,1.832-1.23,5.559,5.559,0,0,1,2.224-.458,5.536,5.536,0,0,1,2.227.442,5.831,5.831,0,0,1,1.831,1.23,5.778,5.778,0,0,1,1.23,1.815,5.545,5.545,0,0,1,.459,2.225,5.538,5.538,0,0,1-.442,2.227,5.745,5.745,0,0,1-.574,1.025h2.683v-6.523h2.526v9.05Zm-10.539-8.839a3.064,3.064,0,0,0-1.009.71,3.255,3.255,0,0,0-.663,1.041,3.407,3.407,0,0,0-.235,1.279,3.4,3.4,0,0,0,.235,1.279,3.228,3.228,0,0,0,.663,1.042,3.057,3.057,0,0,0,1.009.71,3.14,3.14,0,0,0,1.28.252h.3a3.159,3.159,0,0,0,.974-.237,3.076,3.076,0,0,0,1.011-.71,3.249,3.249,0,0,0,.663-1.041,3.438,3.438,0,0,0,.237-1.279,3.441,3.441,0,0,0-.237-1.28,3.271,3.271,0,0,0-.663-1.042,3.1,3.1,0,0,0-1.011-.71,3.131,3.131,0,0,0-1.277-.267A3.139,3.139,0,0,0,756.383-5196.951Zm-12.493,0a3.091,3.091,0,0,0-1.009.71,3.256,3.256,0,0,0-.663,1.041,3.407,3.407,0,0,0-.237,1.279,3.4,3.4,0,0,0,.237,1.279,3.229,3.229,0,0,0,.663,1.042,3.084,3.084,0,0,0,1.009.71,3.139,3.139,0,0,0,1.28.252h.3a3.168,3.168,0,0,0,.974-.237,3.062,3.062,0,0,0,1.011-.71,3.249,3.249,0,0,0,.663-1.041,3.438,3.438,0,0,0,.237-1.279,3.441,3.441,0,0,0-.237-1.28,3.271,3.271,0,0,0-.663-1.042,3.084,3.084,0,0,0-1.011-.71,3.136,3.136,0,0,0-1.277-.267A3.139,3.139,0,0,0,743.89-5196.951Zm-52.115-2.506,4.864-1.3.651,2.431-2.432.652.648,2.431-2.432.65Zm74.535-.964L764.889-5199l-1.42-1.421,1.42-1.42,1.421-1.421,1.421,1.421,1.421,1.42L767.731-5199Zm-8.679-1.413,1.429-1.429,1.428,1.429-1.428,1.429Zm-2.857,0,1.429-1.429,1.428,1.429-1.428,1.429Zm-9.635,0,1.428-1.429,1.429,1.429-1.429,1.429Zm-2.857,0,1.429-1.429,1.428,1.429-1.428,1.429Zm-23.121-2.308-2.433.649-.648-2.431,4.864-1.3,1.3,4.865-2.432.65Zm-20.913,1.776,1.3-4.863,4.864,1.306-.654,2.431-2.432-.654-.652,2.432ZM757.63-5201.834ZM745.138-5201.834Zm-34.892-4.6-1.782,1.778-1.78-1.78,3.563-3.56,3.559,3.563-1.781,1.779Z" transform="translate(-609.996 5210)" fill="#111641" stroke="rgba(0,0,0,0)" stroke-width="1"/>
      <path id="Path_11170" data-name="Path 11170" d="M101.082,30.576A118.9,118.9,0,0,1,118.3,11.749l-1.653-1.926a116.781,116.781,0,0,0-16.3,13.232l-6.382-5.436-2.639,1.9,9.687,11.135Z" fill="#ed4815"/>
    </g>
    <g id="Group_28505" data-name="Group 28505">
      <path id="Path_11171" data-name="Path 11171" d="M0,0V41.208" transform="translate(59.704 0.467)" fill="none" stroke="#111641" stroke-width="0.261"/>
      <text id="Certified_By" data-name="Certified By" transform="translate(38 24)" fill="#111641" font-size="6" font-family="Graphik-Regular, Graphik"><tspan x="-37" y="0">CERTIFIED BY</tspan></text>
    </g>
  </g>
</svg>
