<svg id="Group_6584" data-name="Group 6584" xmlns="http://www.w3.org/2000/svg" width="32" height="32" viewBox="0 0 32 32">
  <g id="Ellipse_339" data-name="Ellipse 339" fill="none" stroke="#4a525d" stroke-width="1.2">
    <circle cx="16" cy="16" r="16" stroke="none"/>
    <circle cx="16" cy="16" r="15.4" fill="none"/>
  </g>
  <path id="youtube" d="M14.272-4.486A1.825,1.825,0,0,0,12.988-5.77a42.652,42.652,0,0,0-5.7-.312,44.313,44.313,0,0,0-5.7.3A1.863,1.863,0,0,0,.3-4.486,19.236,19.236,0,0,0,0-.981a19.165,19.165,0,0,0,.3,3.5A1.826,1.826,0,0,0,1.585,3.808a42.729,42.729,0,0,0,5.7.312,44.313,44.313,0,0,0,5.7-.3,1.826,1.826,0,0,0,1.284-1.284,19.242,19.242,0,0,0,.3-3.5,18.259,18.259,0,0,0-.3-3.517ZM5.834,1.2V-3.165L9.627-.981Zm0,0" transform="translate(8.999 17.082)" fill="#4a525d"/>
</svg>
